<svg xmlns="http://www.w3.org/2000/svg" width="84" height="36" viewBox="0 0 84 36" fill="none"><path d="M5.524 22.004H13.804V26H0.484V0.872H5.524V22.004ZM25.8634 26.324C23.9434 26.324 22.2154 25.904 20.6794 25.064C19.1434 24.2 17.9314 22.988 17.0434 21.428C16.1794 19.868 15.7474 18.068 15.7474 16.028C15.7474 13.988 16.1914 12.188 17.0794 10.628C17.9914 9.068 19.2274 7.868 20.7874 7.028C22.3474 6.164 24.0874 5.732 26.0074 5.732C27.9274 5.732 29.6674 6.164 31.2274 7.028C32.7874 7.868 34.0114 9.068 34.8994 10.628C35.8114 12.188 36.2674 13.988 36.2674 16.028C36.2674 18.068 35.7994 19.868 34.8634 21.428C33.9514 22.988 32.7034 24.2 31.1194 25.064C29.5594 25.904 27.8074 26.324 25.8634 26.324ZM25.8634 21.932C26.7754 21.932 27.6274 21.716 28.4194 21.284C29.2354 20.828 29.8834 20.156 30.3634 19.268C30.8434 18.38 31.0834 17.3 31.0834 16.028C31.0834 14.132 30.5794 12.68 29.5714 11.672C28.5874 10.64 27.3754 10.124 25.9354 10.124C24.4954 10.124 23.2834 10.64 22.2994 11.672C21.3394 12.68 20.8594 14.132 20.8594 16.028C20.8594 17.924 21.3274 19.388 22.2634 20.42C23.2234 21.428 24.4234 21.932 25.8634 21.932ZM47.7765 5.732C49.2645 5.732 50.5725 6.032 51.7005 6.632C52.8285 7.208 53.7165 7.964 54.3645 8.9V6.056H59.4405V26.144C59.4405 27.992 59.0685 29.636 58.3245 31.076C57.5805 32.54 56.4645 33.692 54.9765 34.532C53.4885 35.396 51.6885 35.828 49.5765 35.828C46.7445 35.828 44.4165 35.168 42.5925 33.848C40.7925 32.528 39.7725 30.728 39.5325 28.448H44.5365C44.8005 29.36 45.3645 30.08 46.2285 30.608C47.1165 31.16 48.1845 31.436 49.4325 31.436C50.8965 31.436 52.0845 30.992 52.9965 30.104C53.9085 29.24 54.3645 27.92 54.3645 26.144V23.048C53.7165 23.984 52.8165 24.764 51.6645 25.388C50.5365 26.012 49.2405 26.324 47.7765 26.324C46.0965 26.324 44.5605 25.892 43.1685 25.028C41.7765 24.164 40.6725 22.952 39.8565 21.392C39.0645 19.808 38.6685 17.996 38.6685 15.956C38.6685 13.94 39.0645 12.152 39.8565 10.592C40.6725 9.032 41.7645 7.832 43.1325 6.992C44.5245 6.152 46.0725 5.732 47.7765 5.732ZM54.3645 16.028C54.3645 14.804 54.1245 13.76 53.6445 12.896C53.1645 12.008 52.5165 11.336 51.7005 10.88C50.8845 10.4 50.0085 10.16 49.0725 10.16C48.1365 10.16 47.2725 10.388 46.4805 10.844C45.6885 11.3 45.0405 11.972 44.5365 12.86C44.0565 13.724 43.8165 14.756 43.8165 15.956C43.8165 17.156 44.0565 18.212 44.5365 19.124C45.0405 20.012 45.6885 20.696 46.4805 21.176C47.2965 21.656 48.1605 21.896 49.0725 21.896C50.0085 21.896 50.8845 21.668 51.7005 21.212C52.5165 20.732 53.1645 20.06 53.6445 19.196C54.1245 18.308 54.3645 17.252 54.3645 16.028ZM73.2189 26.324C71.2989 26.324 69.5709 25.904 68.0349 25.064C66.4989 24.2 65.2869 22.988 64.3989 21.428C63.5349 19.868 63.1029 18.068 63.1029 16.028C63.1029 13.988 63.5469 12.188 64.4349 10.628C65.3469 9.068 66.5829 7.868 68.1429 7.028C69.7029 6.164 71.4429 5.732 73.3629 5.732C75.2829 5.732 77.0229 6.164 78.5829 7.028C80.1429 7.868 81.3669 9.068 82.2549 10.628C83.1669 12.188 83.6229 13.988 83.6229 16.028C83.6229 18.068 83.1549 19.868 82.2189 21.428C81.3069 22.988 80.0589 24.2 78.4749 25.064C76.9149 25.904 75.1629 26.324 73.2189 26.324ZM73.2189 21.932C74.1309 21.932 74.9829 21.716 75.7749 21.284C76.5909 20.828 77.2389 20.156 77.7189 19.268C78.1989 18.38 78.4389 17.3 78.4389 16.028C78.4389 14.132 77.9349 12.68 76.9269 11.672C75.9429 10.64 74.7309 10.124 73.2909 10.124C71.8509 10.124 70.6389 10.64 69.6549 11.672C68.6949 12.68 68.2149 14.132 68.2149 16.028C68.2149 17.924 68.6829 19.388 69.6189 20.42C70.5789 21.428 71.7789 21.932 73.2189 21.932Z" fill="#1C2448"></path></svg>